<svg aria-hidden="true" style="position: absolute; width: 0; height: 0; overflow: hidden;" version="1.1" xmlns="http://www.w3.org/2000/svg" xmlns:xlink="http://www.w3.org/1999/xlink">
<defs>
<symbol id="icon-Vector" viewBox="0 0 41 32">
<path d="M3.608 17.905h29.688l-10.082 10.082c-0.18 0.176-0.323 0.386-0.422 0.618s-0.15 0.481-0.151 0.733 0.047 0.502 0.143 0.735c0.096 0.233 0.237 0.445 0.415 0.623s0.39 0.319 0.623 0.415c0.233 0.096 0.483 0.144 0.735 0.143s0.501-0.053 0.733-0.151c0.232-0.099 0.442-0.242 0.618-0.422l13.334-13.333c0.357-0.357 0.558-0.842 0.558-1.347s-0.201-0.989-0.558-1.347l-13.334-13.333c-0.177-0.177-0.387-0.318-0.618-0.414s-0.479-0.145-0.729-0.145c-0.377 0-0.745 0.112-1.058 0.321s-0.557 0.507-0.701 0.855c-0.144 0.348-0.182 0.731-0.108 1.1s0.255 0.709 0.521 0.975l10.082 10.082h-29.688c-0.505 0-0.99 0.201-1.347 0.558s-0.558 0.842-0.558 1.347c0 0.505 0.201 0.99 0.558 1.347s0.842 0.558 1.347 0.558z"></path>
</symbol>
</defs>
</svg>